<?xml version="1.0" encoding="utf-8"?>
<!-- Generator: Adobe Illustrator 16.0.3, SVG Export Plug-In . SVG Version: 6.00 Build 0)  -->
<!DOCTYPE svg PUBLIC "-//W3C//DTD SVG 1.1//EN" "http://www.w3.org/Graphics/SVG/1.1/DTD/svg11.dtd">
<svg version="1.1" id="Capa_1" xmlns="http://www.w3.org/2000/svg" xmlns:xlink="http://www.w3.org/1999/xlink" x="0px" y="0px"
	 width="204px" height="204px" viewBox="258.5 249.5 204 204" enable-background="new 258.5 249.5 204 204" xml:space="preserve">
<title>logo</title>
<path d="M275.627,394.423v-24.656c0-3.32,1.037-6.049,3.111-8.184c2.184-2.229,5.026-3.344,8.528-3.344
	c3.181-0.102,6.265,1.107,8.528,3.344c2.074,2.059,3.11,4.787,3.11,8.184v22.594l-4.38,2.072h-0.232v-16.246H280.24v14.168
	l-4.38,2.072L275.627,394.423z M280.24,374.022h14.065v-4.256c0.082-1.816-0.509-3.598-1.66-5.004
	c-2.694-2.973-7.289-3.199-10.262-0.506c-0.177,0.16-0.346,0.328-0.506,0.506c-1.151,1.406-1.742,3.188-1.66,5.004L280.24,374.022z"
	/>
<path d="M306.578,393.499v-33.66l4.381-2.074h0.204v31.541h15.793v0.232l-1.864,3.967L306.578,393.499z"/>
<path d="M327.381,382.43v-12.664c0-3.336,1.037-6.064,3.11-8.184c2.184-2.229,5.026-3.344,8.528-3.344s6.345,1.115,8.528,3.344
	c2.074,2.105,3.111,4.832,3.111,8.184v12.682c0.091,2.82-0.873,5.572-2.703,7.719l1.626,2.322l-4.057,1.916h-0.232l-1.043-1.49
	c-1.65,0.711-3.433,1.063-5.229,1.031c-3.506,0-6.349-1.115-8.528-3.344C328.418,388.491,327.381,385.766,327.381,382.43z
	 M331.993,382.43c-0.083,1.816,0.509,3.598,1.66,5.004c1.335,1.57,3.313,2.443,5.372,2.375c0.928,0.01,1.85-0.15,2.72-0.471
	l-4.425-6.33l4.057-1.914h0.232l3.593,5.139c0.597-1.176,0.891-2.482,0.855-3.803v-12.664c0.083-1.816-0.509-3.598-1.66-5.004
	c-2.694-2.973-7.288-3.199-10.261-0.506c-0.177,0.16-0.346,0.328-0.506,0.506c-1.151,1.406-1.743,3.188-1.66,5.004L331.993,382.43z"
	/>
<path d="M381.616,357.764v24.666c0,3.322-1.037,6.049-3.111,8.184c-2.184,2.229-5.026,3.344-8.528,3.344
	c-3.182,0.107-6.268-1.102-8.528-3.344c-2.074-2.059-3.11-4.787-3.11-8.184v-22.592l4.38-2.074h0.232v24.666
	c-0.083,1.816,0.509,3.598,1.66,5.004c2.694,2.973,7.288,3.199,10.262,0.506c0.177-0.16,0.345-0.328,0.505-0.506
	c1.152-1.406,1.743-3.188,1.66-5.004v-22.592l4.381-2.074H381.616z"/>
<path d="M389.278,394.423v-34.568l4.381-2.074h0.237v34.568l-4.38,2.074H389.278z"/>
<path d="M401.552,393.499v-33.66l4.38-2.074h0.232v31.541h15.793v0.232l-1.87,3.967L401.552,393.499z"/>
<path d="M422.354,382.43v-12.664c0-3.336,1.037-6.064,3.111-8.184c2.184-2.229,5.026-3.344,8.528-3.344s6.345,1.115,8.528,3.344
	c2.074,2.105,3.111,4.832,3.111,8.184v12.682c0,3.336-1.037,6.064-3.111,8.184c-2.184,2.229-5.026,3.342-8.528,3.342
	s-6.345-1.113-8.528-3.342C423.395,388.501,422.358,385.766,422.354,382.43z M426.967,382.43c-0.083,1.816,0.508,3.598,1.66,5.004
	c2.694,2.973,7.288,3.199,10.261,0.506c0.177-0.16,0.346-0.328,0.506-0.506c1.151-1.406,1.743-3.188,1.66-5.004v-12.664
	c0.083-1.816-0.509-3.598-1.66-5.004c-2.694-2.973-7.288-3.199-10.262-0.506c-0.177,0.16-0.345,0.328-0.505,0.506
	c-1.152,1.406-1.743,3.188-1.66,5.004V382.43z"/>
<path d="M297.744,422.018v1.615c0,3.336-1.037,6.063-3.111,8.182c-2.184,2.23-5.026,3.344-8.528,3.344s-6.345-1.113-8.528-3.344
	c-2.074-2.119-3.11-4.846-3.11-8.182v-12.676c0-3.336,1.036-6.064,3.11-8.184c2.184-2.229,5.026-3.344,8.528-3.344
	c3.627,0,6.474,1.115,8.54,3.344c2.003,2.07,3.116,4.844,3.1,7.725l-4.381,2.074h-0.231v-1.615c0.082-1.816-0.509-3.598-1.661-5.004
	c-2.693-2.973-7.288-3.199-10.261-0.506c-0.177,0.16-0.346,0.328-0.506,0.506c-1.151,1.406-1.743,3.188-1.66,5.004v12.682
	c-0.083,1.814,0.509,3.598,1.66,5.004c2.507,2.967,6.943,3.34,9.91,0.834c1.581-1.336,2.493-3.299,2.494-5.367l4.381-2.074
	L297.744,422.018z"/>
<path d="M305.406,435.624v-24.666c0-3.32,1.037-6.049,3.111-8.184c2.184-2.229,5.026-3.344,8.528-3.344
	c3.181-0.102,6.264,1.107,8.528,3.344c2.074,2.059,3.11,4.787,3.11,8.184v22.592l-4.38,2.074h-0.232v-16.229H310.03v14.166
	l-4.38,2.074L305.406,435.624z M310.018,415.223h14.065v-4.244c0.082-1.814-0.509-3.598-1.66-5.004
	c-2.694-2.973-7.289-3.199-10.262-0.504c-0.177,0.16-0.346,0.328-0.506,0.504c-1.151,1.406-1.742,3.189-1.66,5.004L310.018,415.223z
	"/>
<path d="M336.357,435.624v-34.566l2.442-1.133h8.738c3.506,0,6.349,1.113,8.528,3.344c2.073,2.119,3.11,4.846,3.11,8.182
	s-1.038,6.066-3.116,8.189c-1.205,1.229-2.686,2.152-4.318,2.697l7.984,11.406l-4.057,1.916h-0.232l-8.874-12.684h-5.604v10.604
	l-4.38,2.074L336.357,435.624z M340.97,418.794h6.572c2.043-0.012,3.988-0.871,5.372-2.373c1.107-1.135,1.661-2.803,1.661-5.004
	c0.082-1.816-0.509-3.598-1.661-5.004c-1.335-1.568-3.313-2.443-5.372-2.375h-6.572V418.794z"/>
<path d="M366.242,435.624v-34.566l2.442-1.133h8.738c3.506,0,6.349,1.113,8.528,3.344c2.074,2.119,3.111,4.846,3.111,8.182
	s-1.033,6.053-3.1,8.148c-2.199,2.229-5.042,3.344-8.528,3.344h-6.574v10.602l-4.38,2.074L366.242,435.624z M370.856,418.794h6.573
	c2.042-0.012,3.987-0.871,5.372-2.373c1.106-1.135,1.66-2.803,1.66-5.004c0.083-1.816-0.509-3.598-1.66-5.004
	c-1.336-1.568-3.313-2.443-5.372-2.375h-6.573V418.794z"/>
<path d="M394.423,435.624v-24.666c0-3.32,1.037-6.049,3.111-8.184c2.184-2.229,5.026-3.344,8.528-3.344
	c3.181-0.102,6.265,1.107,8.528,3.344c2.073,2.059,3.11,4.787,3.11,8.184v22.592l-4.38,2.074h-0.232v-16.229h-14.054v14.166
	l-4.38,2.074L394.423,435.624z M399.035,415.223h14.065v-4.244c0.082-1.814-0.509-3.598-1.661-5.004
	c-2.693-2.973-7.288-3.199-10.261-0.504c-0.177,0.16-0.346,0.328-0.506,0.504c-1.151,1.406-1.743,3.189-1.66,5.004L399.035,415.223z
	"/>
<path d="M447.73,423.821c0.064,2.969-1.045,5.846-3.089,8c-2.104,2.23-4.947,3.344-8.528,3.344s-6.424-1.113-8.528-3.344
	c-2.019-2.061-3.138-4.838-3.11-7.723l4.38-2.074h0.232v1.893c-0.053,1.727,0.539,3.412,1.66,4.727
	c2.694,2.973,7.288,3.199,10.262,0.504c0.177-0.158,0.345-0.328,0.505-0.504c1.122-1.33,1.706-3.033,1.638-4.771
	c0.09-1.553-0.385-3.084-1.337-4.313c-1.229-1.443-3.117-2.164-5.667-2.164c-2.687,0.043-5.287-0.947-7.265-2.766
	c-1.537-1.383-2.307-3.389-2.307-6.018c0-3.092,0.944-5.412,2.834-6.965c3.985-2.951,9.432-2.951,13.418,0
	c1.899,1.563,2.95,3.93,2.834,6.387l-4.381,2.074h-0.232v-1.842c0-1.754-0.498-3.061-1.496-3.922
	c-0.953-0.84-2.187-1.291-3.456-1.27c-1.344-0.059-2.65,0.451-3.599,1.404c-0.94,1.027-1.431,2.389-1.36,3.781
	c0,1.51,0.346,2.654,1.037,3.434c1.015,1.07,2.45,1.637,3.922,1.547c3.721,0,6.563,0.877,8.528,2.629
	C446.695,417.694,447.73,420.344,447.73,423.821z"/>
<path d="M363.296,326.557h-67.575c-0.356-0.002-0.644-0.293-0.642-0.65c0.001-0.076,0.015-0.15,0.041-0.223l20.474-53.691
	c0.096-0.248,0.335-0.412,0.601-0.414h67.575c0.356,0.004,0.644,0.295,0.642,0.65c0,0.076-0.015,0.152-0.041,0.223l-20.474,53.682
	C363.805,326.385,363.566,326.555,363.296,326.557z M296.656,325.272h66.197l19.98-52.406h-66.191L296.656,325.272z"/>
<path d="M383.77,326.557c-0.356,0-0.646-0.289-0.646-0.646l0,0v-31.84c-0.033-0.355,0.228-0.67,0.583-0.703
	c0.355-0.035,0.67,0.227,0.704,0.582c0.003,0.041,0.003,0.08,0,0.121v31.84C384.41,326.266,384.124,326.555,383.77,326.557z"/>
<path d="M383.77,289.503c-0.356,0-0.646-0.289-0.646-0.645l0,0v-4.336c-0.033-0.355,0.228-0.67,0.583-0.703s0.67,0.227,0.704,0.582
	c0.003,0.041,0.003,0.08,0,0.121v4.336C384.41,289.212,384.124,289.501,383.77,289.503z"/>
<path d="M401.829,326.557h-38.533c-0.355-0.033-0.616-0.348-0.583-0.703c0.029-0.309,0.274-0.555,0.583-0.582h37.649l-17.788-52.842
	c-0.148-0.326-0.005-0.709,0.319-0.857s0.708-0.004,0.856,0.32c0.019,0.041,0.033,0.084,0.043,0.129l18.071,53.691
	c0.112,0.338-0.071,0.703-0.409,0.816c-0.065,0.021-0.134,0.033-0.203,0.033L401.829,326.557z"/>
<path d="M292.74,326.557h-17.476c-0.355-0.033-0.616-0.348-0.583-0.703c0.029-0.309,0.273-0.555,0.583-0.582h17.476
	c0.355-0.035,0.67,0.227,0.704,0.582c0.033,0.355-0.228,0.67-0.583,0.703C292.822,326.561,292.781,326.561,292.74,326.557z"/>
<path d="M424.768,326.557h-17.476c-0.355,0.033-0.671-0.227-0.704-0.582s0.228-0.67,0.583-0.703c0.04-0.004,0.081-0.004,0.121,0
	h17.476c0.355,0.033,0.616,0.348,0.583,0.703C425.322,326.284,425.077,326.528,424.768,326.557L424.768,326.557z"/>
<path d="M421.753,334.333h-144.42c-2.018,0-3.655-0.289-3.655-0.646s1.638-0.646,3.655-0.646h144.42
	c2.018,0,3.655,0.289,3.655,0.646S423.777,334.333,421.753,334.333z"/>
<path d="M288.939,326.247c-0.357,0-0.646-0.291-0.646-0.646l0,0v-56.564c-0.033-0.355,0.228-0.67,0.583-0.705
	c0.354-0.033,0.67,0.229,0.703,0.584c0.004,0.039,0.004,0.08,0,0.121V325.6C289.578,325.954,289.293,326.243,288.939,326.247z"/>
<path d="M294.594,274.282c-0.17,0-0.333-0.066-0.454-0.186l-5.196-5.197l-5.1,5.162c-0.264,0.24-0.672,0.223-0.913-0.041
	c-0.223-0.244-0.225-0.619-0.005-0.865l5.548-5.621c0.119-0.121,0.282-0.191,0.453-0.193l0,0c0.17,0,0.333,0.068,0.453,0.188
	l5.667,5.621c0.25,0.254,0.247,0.664-0.007,0.914c-0.119,0.117-0.279,0.184-0.446,0.186V274.282z"/>
<path d="M283.397,281.479c-0.357-0.004-0.644-0.297-0.64-0.652c0.002-0.164,0.066-0.322,0.181-0.441l5.547-5.621
	c0.12-0.121,0.283-0.191,0.454-0.193l0,0c0.169,0,0.332,0.068,0.453,0.188l5.666,5.621c0.276,0.227,0.316,0.635,0.09,0.91
	s-0.634,0.314-0.909,0.088c-0.032-0.025-0.061-0.055-0.087-0.086l-5.196-5.168l-5.1,5.162
	C283.735,281.409,283.569,281.479,283.397,281.479z"/>
<path d="M294.594,288.677c-0.17,0-0.333-0.068-0.454-0.188l-5.196-5.168l-5.1,5.162c-0.264,0.24-0.672,0.223-0.913-0.041
	c-0.223-0.244-0.225-0.619-0.005-0.865l5.57-5.645c0.12-0.121,0.282-0.191,0.453-0.193l0,0c0.17,0.002,0.333,0.068,0.453,0.188
	l5.667,5.621c0.25,0.254,0.247,0.664-0.007,0.914c-0.119,0.117-0.279,0.184-0.446,0.186L294.594,288.677z"/>
<path d="M283.397,295.872c-0.357-0.002-0.644-0.295-0.64-0.652c0.002-0.164,0.066-0.322,0.181-0.441l5.547-5.621
	c0.12-0.121,0.283-0.189,0.454-0.191l0,0c0.169,0,0.332,0.066,0.453,0.186l5.666,5.623c0.276,0.225,0.316,0.633,0.09,0.908
	s-0.634,0.316-0.909,0.09c-0.032-0.027-0.061-0.055-0.087-0.086l-5.196-5.168l-5.1,5.162
	C283.735,295.803,283.569,295.872,283.397,295.872z"/>
<path d="M274.964,326.557c-0.356,0-0.646-0.289-0.646-0.646l0,0v-45.57c-0.034-0.355,0.228-0.67,0.582-0.703
	c0.355-0.035,0.671,0.227,0.704,0.582c0.004,0.041,0.004,0.08,0,0.121v45.576C275.602,326.27,275.317,326.555,274.964,326.557z"/>
<path d="M270.488,284.692c-0.356-0.004-0.643-0.295-0.64-0.652c0.002-0.164,0.066-0.322,0.181-0.441l4.471-4.533
	c0.12-0.121,0.283-0.191,0.454-0.193l0,0c0.169,0.002,0.332,0.068,0.453,0.188l4.533,4.533c0.229,0.275,0.19,0.682-0.084,0.91
	c-0.238,0.199-0.583,0.199-0.823,0.002l-4.097-4.074l-4.006,4.068C270.813,284.618,270.655,284.688,270.488,284.692z"/>
<path d="M270.488,290.489c-0.356-0.004-0.643-0.295-0.64-0.652c0.002-0.164,0.066-0.322,0.181-0.441l4.471-4.533
	c0.12-0.121,0.283-0.191,0.454-0.193l0,0c0.169,0.002,0.332,0.068,0.453,0.188l4.533,4.533c0.229,0.275,0.19,0.682-0.084,0.91
	c-0.238,0.199-0.583,0.199-0.823,0.002l-4.097-4.074l-4.006,4.068C270.813,290.415,270.655,290.485,270.488,290.489z"/>
<path d="M279.521,296.286c-0.171,0-0.333-0.066-0.454-0.188l-4.097-4.074l-4.04,4.074c-0.264,0.242-0.673,0.223-0.913-0.041
	c-0.223-0.244-0.226-0.617-0.005-0.865l4.471-4.533c0.12-0.121,0.282-0.191,0.453-0.191l0,0c0.17,0,0.333,0.066,0.453,0.186
	l4.534,4.533c0.25,0.254,0.247,0.664-0.007,0.914c-0.12,0.117-0.279,0.184-0.447,0.186H279.521z"/>
<path d="M279.521,302.089c-0.171,0-0.333-0.066-0.454-0.188l-4.103-4.102l-4.034,4.098c-0.264,0.24-0.673,0.221-0.913-0.043
	c-0.223-0.244-0.226-0.617-0.005-0.865l4.471-4.533c0.12-0.121,0.282-0.189,0.453-0.191l0,0c0.17,0,0.333,0.066,0.453,0.186
	l4.534,4.533c0.25,0.256,0.247,0.664-0.007,0.914c-0.12,0.117-0.279,0.184-0.447,0.186L279.521,302.089z"/>
<path d="M441.978,323.753c-3.474,0-4.533-2.045-4.896-3.264c-0.708-2.557,0.567-6.041,2.703-7.305
	c0.274-0.146,0.615-0.047,0.766,0.227l0.566,1.133l1.7-2.543c0.188-0.252,0.543-0.303,0.793-0.113
	c0.043,0.031,0.081,0.07,0.113,0.113c0.17,0.266,4.143,6.607,2.341,9.883C445.372,323.124,444,323.753,441.978,323.753z
	 M439.859,314.466c-1.523,1.486-2.177,3.652-1.729,5.734c0.447,1.615,1.779,2.471,3.848,2.471c1.592,0,2.646-0.443,3.122-1.314
	c1.094-1.99-0.702-5.99-1.876-8.059l-1.756,2.635c-0.194,0.246-0.551,0.287-0.796,0.094c-0.057-0.045-0.104-0.1-0.14-0.162
	L439.859,314.466z"/>
<path d="M438.719,310.594c-0.241-0.01-0.451-0.17-0.521-0.402c-0.567-2.057,0.255-4.057,2.328-5.785l0.477-0.381
	c0.748-0.566,1.45-1.133,1.654-2.016c0.134-0.732-0.114-1.482-0.657-1.99c-0.338-0.324-0.835-0.42-1.27-0.244
	c-0.38,0.123-0.654,0.455-0.702,0.852c-0.063,0.426,0.101,0.855,0.431,1.133c0.299,0.189,0.681,0.189,0.98,0
	c0.231-0.211,0.59-0.193,0.8,0.037c0.211,0.232,0.194,0.59-0.037,0.801c-0.085,0.076-0.19,0.127-0.304,0.143
	c-0.664,0.35-1.468,0.297-2.08-0.137c-0.652-0.516-0.98-1.342-0.861-2.164c0.107-0.783,0.646-1.441,1.395-1.701
	c0.807-0.316,1.725-0.145,2.362,0.443c0.846,0.77,1.225,1.928,0.998,3.049c-0.289,1.24-1.219,1.977-2.04,2.623l-0.454,0.363
	c-1.751,1.455-2.419,3.025-1.978,4.668c0.063,0.289-0.104,0.576-0.385,0.664C438.812,310.571,438.767,310.585,438.719,310.594z"/>
<path d="M441.785,310.776c-0.249-0.01-0.463-0.18-0.527-0.42c-0.629-2.754,1.167-4.561,2.805-5.83
	c0.675-0.521,1.502-1.35,1.621-2.33c0.05-0.707-0.191-1.406-0.669-1.932c-0.115-0.291,0.027-0.621,0.318-0.736
	c0.176-0.07,0.376-0.047,0.532,0.063c0.66,0.748,0.983,1.736,0.895,2.73c-0.13,1.082-0.815,2.107-2.034,3.055
	c-2.079,1.609-2.799,3.025-2.408,4.732c0.055,0.289-0.123,0.572-0.408,0.65L441.785,310.776z"/>
<path d="M434.028,334.712c-1.534,0.002-2.778-1.238-2.78-2.773c-0.002-0.986,0.521-1.9,1.375-2.4
	c0.158-0.27,0.506-0.359,0.775-0.199c0.1,0.059,0.179,0.146,0.228,0.25l0.039,0.113c0.08,0.27-0.047,0.555-0.3,0.676
	c-0.857,0.383-1.242,1.387-0.859,2.244c0.294,0.658,0.969,1.059,1.687,1.002c0.096-0.01,0.19-0.029,0.283-0.057
	c0.059-0.01,0.118-0.01,0.176,0l6.278-2.063c0.313-0.006,0.571,0.244,0.577,0.557c0.003,0.189-0.088,0.367-0.242,0.475l-6.46,2.098
	c-0.08,0.018-0.164,0.018-0.244,0l-0.261,0.039L434.028,334.712z"/>
<path d="M447.797,330.45c-0.303-0.076-0.485-0.385-0.408-0.689c0.047-0.182,0.181-0.328,0.357-0.393
	c0.801,0.008,1.456-0.637,1.464-1.438c0-0.068-0.004-0.137-0.014-0.205c-0.094-0.934-0.928-1.615-1.861-1.521
	c-0.198,0.02-0.391,0.074-0.569,0.16l-0.085,0.035l-4.822,1.404c-0.313,0-0.566-0.254-0.565-0.566
	c0.001-0.193,0.099-0.371,0.26-0.475l4.782-1.395c1.391-0.648,3.042-0.047,3.689,1.344c0.136,0.291,0.22,0.604,0.249,0.922
	c0.176,1.379-0.799,2.639-2.178,2.814c-0.082,0.012-0.165,0.018-0.248,0.02L447.797,330.45z"/>
<path d="M448.369,334.598h-0.255c-0.093-0.008-0.186-0.021-0.277-0.039c-0.073,0.016-0.148,0.016-0.221,0l-12.79-3.934
	c-0.151-0.037-0.298-0.092-0.437-0.164l-0.158-0.068c-0.668-0.037-1.287-0.359-1.7-0.883c-0.378-0.553-0.538-1.225-0.448-1.887
	c0.138-1.531,1.49-2.66,3.021-2.523c0.002,0,0.004,0,0.006,0c0.313,0.031,0.617,0.113,0.901,0.244l13.418,3.779
	c0.144,0.043,0.264,0.143,0.335,0.273l0,0c1.327,0.768,1.779,2.467,1.011,3.793c-0.497,0.859-1.413,1.387-2.405,1.387V334.598z
	 M447.803,333.436h0.125c0.917,0.201,1.823-0.379,2.024-1.297c0.169-0.771-0.217-1.559-0.931-1.898
	c-0.093-0.041-0.173-0.105-0.232-0.188l-13.096-3.729l-0.085-0.033c-0.89-0.381-1.919,0.031-2.299,0.92
	c-0.223,0.52-0.181,1.113,0.111,1.596c0.24,0.287,0.595,0.455,0.969,0.459c0.161,0.027,0.316,0.08,0.459,0.158l0.198,0.086h0.074
	l12.637,3.887L447.803,333.436z"/>
<path d="M448.494,334.598c-1.468,0-2.657-1.189-2.657-2.658c0-1.467,1.189-2.656,2.657-2.656s2.657,1.189,2.657,2.656
	C451.152,333.409,449.962,334.598,448.494,334.598L448.494,334.598z M448.494,330.366c-0.87,0-1.575,0.705-1.575,1.574
	c0,0.871,0.705,1.576,1.575,1.576s1.575-0.705,1.575-1.576C450.07,331.071,449.365,330.366,448.494,330.366L448.494,330.366
	L448.494,330.366z"/>
<path d="M433.903,334.678c-1.468,0-2.657-1.189-2.657-2.658s1.189-2.658,2.657-2.658s2.658,1.189,2.658,2.658
	S435.37,334.678,433.903,334.678L433.903,334.678z M433.903,330.444c-0.87,0-1.575,0.707-1.575,1.576s0.705,1.576,1.575,1.576
	s1.575-0.707,1.575-1.576c-0.003-0.867-0.707-1.57-1.575-1.57V330.444z"/>
<polygon points="316.943,273.319 297.32,324.96 362.656,324.96 382.251,273.319 "/>
</svg>
