<svg xmlns="http://www.w3.org/2000/svg" width="204" height="204" viewBox="258.5 249.5 204 204" xml:space="preserve"><path d="M275.627 394.423v-24.656c0-3.32 1.037-6.049 3.111-8.184 2.184-2.229 5.026-3.344 8.528-3.344a11.602 11.602 0 0 1 8.528 3.344c2.074 2.059 3.11 4.787 3.11 8.184v22.594l-4.38 2.072h-.232v-16.246H280.24v14.168l-4.38 2.072-.233-.004zm4.613-20.401h14.065v-4.256a7.374 7.374 0 0 0-1.66-5.004 7.267 7.267 0 0 0-10.768 0 7.374 7.374 0 0 0-1.66 5.004l.023 4.256zM306.578 393.499v-33.66l4.381-2.074h.204v31.541h15.793v.232l-1.864 3.967-18.514-.006zM327.381 382.43v-12.664c0-3.336 1.037-6.064 3.11-8.184 2.184-2.229 5.026-3.344 8.528-3.344s6.345 1.115 8.528 3.344c2.074 2.105 3.111 4.832 3.111 8.184v12.682a11.336 11.336 0 0 1-2.703 7.719l1.626 2.322-4.057 1.916h-.232l-1.043-1.49a12.646 12.646 0 0 1-5.229 1.031c-3.506 0-6.349-1.115-8.528-3.344-2.074-2.111-3.111-4.836-3.111-8.172zm4.612 0a7.37 7.37 0 0 0 1.66 5.004 6.757 6.757 0 0 0 5.372 2.375c.928.01 1.85-.15 2.72-.471l-4.425-6.33 4.057-1.914h.232l3.593 5.139a7.92 7.92 0 0 0 .855-3.803v-12.664a7.37 7.37 0 0 0-1.66-5.004 7.265 7.265 0 0 0-10.767 0 7.37 7.37 0 0 0-1.66 5.004l.023 12.664zM381.616 357.764v24.666c0 3.322-1.037 6.049-3.111 8.184-2.184 2.229-5.026 3.344-8.528 3.344a11.557 11.557 0 0 1-8.528-3.344c-2.074-2.059-3.11-4.787-3.11-8.184v-22.592l4.38-2.074h.232v24.666a7.37 7.37 0 0 0 1.66 5.004 7.267 7.267 0 0 0 10.767 0 7.364 7.364 0 0 0 1.66-5.004v-22.592l4.381-2.074h.197zM389.278 394.423v-34.568l4.381-2.074h.237v34.568l-4.38 2.074h-.238zM401.552 393.499v-33.66l4.38-2.074h.232v31.541h15.793v.232l-1.87 3.967-18.535-.006zM422.354 382.43v-12.664c0-3.336 1.037-6.064 3.111-8.184 2.184-2.229 5.026-3.344 8.528-3.344s6.345 1.115 8.528 3.344c2.074 2.105 3.111 4.832 3.111 8.184v12.682c0 3.336-1.037 6.064-3.111 8.184-2.184 2.229-5.026 3.342-8.528 3.342s-6.345-1.113-8.528-3.342c-2.07-2.131-3.107-4.866-3.111-8.202zm4.613 0a7.364 7.364 0 0 0 1.66 5.004 7.265 7.265 0 0 0 10.767 0 7.37 7.37 0 0 0 1.66-5.004v-12.664a7.37 7.37 0 0 0-1.66-5.004 7.267 7.267 0 0 0-10.767 0 7.364 7.364 0 0 0-1.66 5.004v12.664zM297.744 422.018v1.615c0 3.336-1.037 6.063-3.111 8.182-2.184 2.23-5.026 3.344-8.528 3.344s-6.345-1.113-8.528-3.344c-2.074-2.119-3.11-4.846-3.11-8.182v-12.676c0-3.336 1.036-6.064 3.11-8.184 2.184-2.229 5.026-3.344 8.528-3.344 3.627 0 6.474 1.115 8.54 3.344a11.023 11.023 0 0 1 3.1 7.725l-4.381 2.074h-.231v-1.615a7.37 7.37 0 0 0-1.661-5.004 7.265 7.265 0 0 0-10.767 0 7.37 7.37 0 0 0-1.66 5.004v12.682a7.372 7.372 0 0 0 1.66 5.004 7.032 7.032 0 0 0 12.404-4.533l4.381-2.074.254-.018zM305.406 435.624v-24.666c0-3.32 1.037-6.049 3.111-8.184 2.184-2.229 5.026-3.344 8.528-3.344a11.604 11.604 0 0 1 8.528 3.344c2.074 2.059 3.11 4.787 3.11 8.184v22.592l-4.38 2.074h-.232v-16.229H310.03v14.166l-4.38 2.074-.244-.011zm4.612-20.401h14.065v-4.244a7.377 7.377 0 0 0-1.66-5.004 7.265 7.265 0 0 0-10.768 0 7.376 7.376 0 0 0-1.66 5.004l.023 4.244zM336.357 435.624v-34.566l2.442-1.133h8.738c3.506 0 6.349 1.113 8.528 3.344 2.073 2.119 3.11 4.846 3.11 8.182s-1.038 6.066-3.116 8.189a10.866 10.866 0 0 1-4.318 2.697l7.984 11.406-4.057 1.916h-.232l-8.874-12.684h-5.604v10.604l-4.38 2.074-.221-.029zm4.613-16.83h6.572a7.362 7.362 0 0 0 5.372-2.373c1.107-1.135 1.661-2.803 1.661-5.004a7.37 7.37 0 0 0-1.661-5.004 6.763 6.763 0 0 0-5.372-2.375h-6.572v14.756zM366.242 435.624v-34.566l2.442-1.133h8.738c3.506 0 6.349 1.113 8.528 3.344 2.074 2.119 3.111 4.846 3.111 8.182s-1.033 6.053-3.1 8.148c-2.199 2.229-5.042 3.344-8.528 3.344h-6.574v10.602l-4.38 2.074-.237.005zm4.614-16.83h6.573a7.365 7.365 0 0 0 5.372-2.373c1.106-1.135 1.66-2.803 1.66-5.004a7.37 7.37 0 0 0-1.66-5.004 6.765 6.765 0 0 0-5.372-2.375h-6.573v14.756zM394.423 435.624v-24.666c0-3.32 1.037-6.049 3.111-8.184 2.184-2.229 5.026-3.344 8.528-3.344a11.602 11.602 0 0 1 8.528 3.344c2.073 2.059 3.11 4.787 3.11 8.184v22.592l-4.38 2.074h-.232v-16.229h-14.054v14.166l-4.38 2.074-.231-.011zm4.612-20.401H413.1v-4.244a7.373 7.373 0 0 0-1.661-5.004 7.263 7.263 0 0 0-10.767 0 7.37 7.37 0 0 0-1.66 5.004l.023 4.244zM447.73 423.821a11.27 11.27 0 0 1-3.089 8c-2.104 2.23-4.947 3.344-8.528 3.344s-6.424-1.113-8.528-3.344a10.885 10.885 0 0 1-3.11-7.723l4.38-2.074h.232v1.893a6.958 6.958 0 0 0 1.66 4.727 7.265 7.265 0 0 0 10.767 0 6.978 6.978 0 0 0 1.638-4.771 6.433 6.433 0 0 0-1.337-4.313c-1.229-1.443-3.117-2.164-5.667-2.164a10.484 10.484 0 0 1-7.265-2.766c-1.537-1.383-2.307-3.389-2.307-6.018 0-3.092.944-5.412 2.834-6.965a11.275 11.275 0 0 1 13.418 0 7.796 7.796 0 0 1 2.834 6.387l-4.381 2.074h-.232v-1.842c0-1.754-.498-3.061-1.496-3.922a5.1 5.1 0 0 0-3.456-1.27 4.783 4.783 0 0 0-3.599 1.404 5.209 5.209 0 0 0-1.36 3.781c0 1.51.346 2.654 1.037 3.434a4.986 4.986 0 0 0 3.922 1.547c3.721 0 6.563.877 8.528 2.629 2.07 1.825 3.105 4.475 3.105 7.952zM363.296 326.557h-67.575a.646.646 0 0 1-.601-.873l20.474-53.691a.65.65 0 0 1 .601-.414h67.575a.649.649 0 0 1 .601.873l-20.474 53.682a.646.646 0 0 1-.601.423zm-66.64-1.285h66.197l19.98-52.406h-66.191l-19.986 52.406zM383.77 326.557a.646.646 0 0 1-.646-.646v-31.84a.646.646 0 1 1 1.287 0v31.84a.647.647 0 0 1-.641.646zM383.77 289.503a.646.646 0 0 1-.646-.645v-4.336a.646.646 0 1 1 1.287 0v4.336a.646.646 0 0 1-.641.645z"/><path d="M401.829 326.557h-38.533a.646.646 0 0 1 0-1.285h37.649l-17.788-52.842a.647.647 0 0 1 1.175-.537.63.63 0 0 1 .043.129l18.071 53.691a.646.646 0 0 1-.612.849l-.005-.005zM292.74 326.557h-17.476a.646.646 0 0 1 0-1.285h17.476a.645.645 0 1 1 0 1.285zM424.768 326.557h-17.476a.646.646 0 1 1 0-1.285h17.476a.646.646 0 0 1 0 1.285zM421.753 334.333h-144.42c-2.018 0-3.655-.289-3.655-.646s1.638-.646 3.655-.646h144.42c2.018 0 3.655.289 3.655.646s-1.631.646-3.655.646z"/><path d="M288.939 326.247a.647.647 0 0 1-.646-.646v-56.564a.649.649 0 0 1 .583-.705.647.647 0 0 1 .703.705V325.6a.649.649 0 0 1-.64.647z"/><path d="M294.594 274.282a.643.643 0 0 1-.454-.186l-5.196-5.197-5.1 5.162a.646.646 0 0 1-.918-.906l5.548-5.621a.647.647 0 0 1 .453-.193c.17 0 .333.068.453.188l5.667 5.621a.647.647 0 0 1-.453 1.1v.032zM283.397 281.479a.647.647 0 0 1-.459-1.093l5.547-5.621a.65.65 0 0 1 .454-.193c.169 0 .332.068.453.188l5.666 5.621a.647.647 0 1 1-.906.912l-5.196-5.168-5.1 5.162a.649.649 0 0 1-.459.192zM294.594 288.677a.645.645 0 0 1-.454-.188l-5.196-5.168-5.1 5.162a.646.646 0 0 1-.918-.906l5.57-5.645a.649.649 0 0 1 .453-.193.65.65 0 0 1 .453.188l5.667 5.621a.647.647 0 0 1-.453 1.1l-.022.029zM283.397 295.872a.644.644 0 0 1-.459-1.093l5.547-5.621a.643.643 0 0 1 .907-.005l5.666 5.623a.645.645 0 1 1-.906.912l-5.196-5.168-5.1 5.162a.651.651 0 0 1-.459.19zM274.964 326.557a.646.646 0 0 1-.646-.646v-45.57a.645.645 0 1 1 1.286 0v45.576a.643.643 0 0 1-.64.64z"/><path d="M270.488 284.692a.647.647 0 0 1-.459-1.093l4.471-4.533a.65.65 0 0 1 .454-.193.653.653 0 0 1 .453.188l4.533 4.533a.646.646 0 0 1-.907.912l-4.097-4.074-4.006 4.068a.645.645 0 0 1-.442.192z"/><path d="M270.488 290.489a.647.647 0 0 1-.459-1.093l4.471-4.533a.65.65 0 0 1 .454-.193.653.653 0 0 1 .453.188l4.533 4.533a.646.646 0 0 1-.907.912l-4.097-4.074-4.006 4.068a.645.645 0 0 1-.442.192z"/><path d="M279.521 296.286a.635.635 0 0 1-.454-.188l-4.097-4.074-4.04 4.074a.645.645 0 0 1-.918-.906l4.471-4.533a.64.64 0 0 1 .906-.005l4.534 4.533a.647.647 0 0 1-.454 1.1h.052z"/><path d="M279.521 302.089a.635.635 0 0 1-.454-.188l-4.103-4.102-4.034 4.098a.647.647 0 0 1-.918-.908l4.471-4.533a.64.64 0 0 1 .906-.005l4.534 4.533a.647.647 0 0 1-.454 1.1l.052.005zM441.978 323.753c-3.474 0-4.533-2.045-4.896-3.264-.708-2.557.567-6.041 2.703-7.305a.568.568 0 0 1 .766.227l.566 1.133 1.7-2.543a.563.563 0 0 1 .906 0c.17.266 4.143 6.607 2.341 9.883-.692 1.24-2.064 1.869-4.086 1.869zm-2.119-9.287a6.192 6.192 0 0 0-1.729 5.734c.447 1.615 1.779 2.471 3.848 2.471 1.592 0 2.646-.443 3.122-1.314 1.094-1.99-.702-5.99-1.876-8.059l-1.756 2.635a.567.567 0 0 1-.936-.068l-.673-1.399zM438.719 310.594a.568.568 0 0 1-.521-.402c-.567-2.057.255-4.057 2.328-5.785l.477-.381c.748-.566 1.45-1.133 1.654-2.016a2.187 2.187 0 0 0-.657-1.99 1.19 1.19 0 0 0-1.27-.244c-.38.123-.654.455-.702.852-.063.426.101.855.431 1.133a.918.918 0 0 0 .98 0 .567.567 0 1 1 .459.981 1.99 1.99 0 0 1-2.08-.137 2.335 2.335 0 0 1-.861-2.164 2.103 2.103 0 0 1 1.395-1.701 2.265 2.265 0 0 1 2.362.443 3.25 3.25 0 0 1 .998 3.049c-.289 1.24-1.219 1.977-2.04 2.623l-.454.363c-1.751 1.455-2.419 3.025-1.978 4.668a.568.568 0 0 1-.385.664.528.528 0 0 1-.136.044z"/><path d="M441.785 310.776a.568.568 0 0 1-.527-.42c-.629-2.754 1.167-4.561 2.805-5.83.675-.521 1.502-1.35 1.621-2.33a2.601 2.601 0 0 0-.669-1.932.567.567 0 0 1 .85-.673c.66.748.983 1.736.895 2.73-.13 1.082-.815 2.107-2.034 3.055-2.079 1.609-2.799 3.025-2.408 4.732a.566.566 0 0 1-.408.65l-.125.018zM434.028 334.712a2.775 2.775 0 0 1-1.405-5.173.564.564 0 0 1 .775-.199c.1.059.179.146.228.25l.039.113a.568.568 0 0 1-.3.676 1.699 1.699 0 0 0 .828 3.246c.096-.01.19-.029.283-.057a.52.52 0 0 1 .176 0l6.278-2.063a.567.567 0 0 1 .335 1.032l-6.46 2.098a.558.558 0 0 1-.244 0l-.261.039-.272.038zM447.797 330.45a.565.565 0 0 1-.051-1.082 1.452 1.452 0 0 0 1.45-1.643 1.7 1.7 0 0 0-2.43-1.361l-.085.035-4.822 1.404a.565.565 0 0 1-.305-1.041l4.782-1.395a2.774 2.774 0 0 1 3.938 2.266 2.515 2.515 0 0 1-2.426 2.834l-.051-.017z"/><path d="M448.369 334.598h-.255a2.564 2.564 0 0 1-.277-.039.515.515 0 0 1-.221 0l-12.79-3.934a1.97 1.97 0 0 1-.437-.164l-.158-.068a2.328 2.328 0 0 1-1.7-.883 2.7 2.7 0 0 1-.448-1.887 2.784 2.784 0 0 1 3.021-2.523h.006c.313.031.617.113.901.244l13.418 3.779a.57.57 0 0 1 .335.273 2.776 2.776 0 0 1-1.394 5.18v.022zm-.566-1.162h.125a1.7 1.7 0 0 0 1.093-3.195.56.56 0 0 1-.232-.188l-13.096-3.729-.085-.033a1.75 1.75 0 0 0-2.188 2.516c.24.287.595.455.969.459.161.027.316.08.459.158l.198.086h.074l12.637 3.887.046.039z"/><path d="M448.494 334.598a2.656 2.656 0 1 1-.001-5.313 2.656 2.656 0 0 1 .001 5.313zm0-4.232a1.575 1.575 0 1 0 0 3.15 1.575 1.575 0 0 0 0-3.15zM433.903 334.678c-1.468 0-2.657-1.189-2.657-2.658a2.656 2.656 0 1 1 5.315 0 2.658 2.658 0 0 1-2.658 2.658zm0-4.234a1.576 1.576 0 0 0 0 3.152c.87 0 1.575-.707 1.575-1.576a1.576 1.576 0 0 0-1.575-1.57v-.006zM316.943 273.319 297.32 324.96h65.336l19.595-51.641z"/></svg>